<?xml version="1.0" encoding="UTF-8"?>
<svg xmlns="http://www.w3.org/2000/svg" xmlns:xlink="http://www.w3.org/1999/xlink" width="530" height="680" viewBox="0 0 530 680">
<rect x="-53" y="-68" width="636" height="816" fill="rgb(100%, 100%, 100%)" fill-opacity="1"/>
<path fill="none" stroke-width="4" stroke-linecap="butt" stroke-linejoin="miter" stroke="rgb(80%, 80%, 80%)" stroke-opacity="1" stroke-miterlimit="10" d="M 340 640 L 490 640 "/>
<path fill="none" stroke-width="4" stroke-linecap="butt" stroke-linejoin="miter" stroke="rgb(80%, 80%, 80%)" stroke-opacity="1" stroke-miterlimit="10" d="M 190 640 L 340 640 "/>
<path fill="none" stroke-width="4" stroke-linecap="butt" stroke-linejoin="miter" stroke="rgb(80%, 80%, 80%)" stroke-opacity="1" stroke-miterlimit="10" d="M 190 240 C 290 240 240 640 340 640 "/>
<path fill="none" stroke-width="4" stroke-linecap="butt" stroke-linejoin="miter" stroke="rgb(80%, 80%, 80%)" stroke-opacity="1" stroke-miterlimit="10" d="M 340 440 L 490 440 "/>
<path fill="none" stroke-width="4" stroke-linecap="butt" stroke-linejoin="miter" stroke="rgb(80%, 80%, 80%)" stroke-opacity="1" stroke-miterlimit="10" d="M 340 640 C 440 640 390 440 490 440 "/>
<path fill="none" stroke-width="4" stroke-linecap="butt" stroke-linejoin="miter" stroke="rgb(80%, 80%, 80%)" stroke-opacity="1" stroke-miterlimit="10" d="M 340 240 C 440 240 390 440 490 440 "/>
<path fill="none" stroke-width="4" stroke-linecap="butt" stroke-linejoin="miter" stroke="rgb(80%, 80%, 80%)" stroke-opacity="1" stroke-miterlimit="10" d="M 190 240 L 340 240 "/>
<path fill="none" stroke-width="4" stroke-linecap="butt" stroke-linejoin="miter" stroke="rgb(80%, 80%, 80%)" stroke-opacity="1" stroke-miterlimit="10" d="M 340 240 C 440 240 390 40 490 40 "/>
<path fill="none" stroke-width="4" stroke-linecap="butt" stroke-linejoin="miter" stroke="rgb(80%, 80%, 80%)" stroke-opacity="1" stroke-miterlimit="10" d="M 40 540 C 140 540 90 240 190 240 "/>
<path fill="none" stroke-width="4" stroke-linecap="butt" stroke-linejoin="miter" stroke="rgb(80%, 80%, 80%)" stroke-opacity="1" stroke-miterlimit="10" d="M 40 540 L 190 540 "/>
<path fill="none" stroke-width="4" stroke-linecap="butt" stroke-linejoin="miter" stroke="rgb(80%, 80%, 80%)" stroke-opacity="1" stroke-miterlimit="10" d="M 190 540 C 290 540 240 640 340 640 "/>
<path fill="none" stroke-width="4" stroke-linecap="butt" stroke-linejoin="miter" stroke="rgb(80%, 80%, 80%)" stroke-opacity="1" stroke-miterlimit="10" d="M 190 240 C 290 240 240 40 340 40 "/>
<path fill="none" stroke-width="4" stroke-linecap="butt" stroke-linejoin="miter" stroke="rgb(80%, 80%, 80%)" stroke-opacity="1" stroke-miterlimit="10" d="M 340 40 L 490 40 "/>
<path fill-rule="nonzero" fill="rgb(63.671875%, 72.265625%, 71.09375%)" fill-opacity="1" stroke-width="4" stroke-linecap="butt" stroke-linejoin="miter" stroke="rgb(10%, 10%, 10%)" stroke-opacity="1" stroke-miterlimit="10" d="M 505 640 C 505 648.285156 498.285156 655 490 655 C 481.714844 655 475 648.285156 475 640 C 475 631.714844 481.714844 625 490 625 C 498.285156 625 505 631.714844 505 640 "/>
<path fill-rule="nonzero" fill="rgb(63.671875%, 72.265625%, 71.09375%)" fill-opacity="1" d="M 487 644 L 505 440 C 505 448.285156 498.285156 455 490 455 C 481.714844 455 475 448.285156 475 440 C 475 431.714844 481.714844 425 490 425 C 498.285156 425 505 431.714844 505 440 "/>
<path fill="none" stroke-width="4" stroke-linecap="butt" stroke-linejoin="miter" stroke="rgb(10%, 10%, 10%)" stroke-opacity="1" stroke-miterlimit="10" d="M 505 440 C 505 448.285156 498.285156 455 490 455 C 481.714844 455 475 448.285156 475 440 C 475 431.714844 481.714844 425 490 425 C 498.285156 425 505 431.714844 505 440 "/>
<path fill-rule="nonzero" fill="rgb(63.671875%, 72.265625%, 71.09375%)" fill-opacity="1" d="M 487 444 L 505 40 C 505 48.285156 498.285156 55 490 55 C 481.714844 55 475 48.285156 475 40 C 475 31.714844 481.714844 25 490 25 C 498.285156 25 505 31.714844 505 40 "/>
<path fill="none" stroke-width="4" stroke-linecap="butt" stroke-linejoin="miter" stroke="rgb(10%, 10%, 10%)" stroke-opacity="1" stroke-miterlimit="10" d="M 505 40 C 505 48.285156 498.285156 55 490 55 C 481.714844 55 475 48.285156 475 40 C 475 31.714844 481.714844 25 490 25 C 498.285156 25 505 31.714844 505 40 "/>
<path fill-rule="nonzero" fill="rgb(63.671875%, 72.265625%, 71.09375%)" fill-opacity="1" d="M 487 44 L 370 640 C 370 656.570312 356.570312 670 340 670 C 323.429688 670 310 656.570312 310 640 C 310 623.429688 323.429688 610 340 610 C 356.570312 610 370 623.429688 370 640 "/>
<path fill="none" stroke-width="4" stroke-linecap="butt" stroke-linejoin="miter" stroke="rgb(10%, 10%, 10%)" stroke-opacity="1" stroke-miterlimit="10" d="M 370 640 C 370 656.570312 356.570312 670 340 670 C 323.429688 670 310 656.570312 310 640 C 310 623.429688 323.429688 610 340 610 C 356.570312 610 370 623.429688 370 640 "/>
<path fill-rule="nonzero" fill="rgb(63.671875%, 72.265625%, 71.09375%)" fill-opacity="1" d="M 337 644 L 370 240 C 370 256.570312 356.570312 270 340 270 C 323.429688 270 310 256.570312 310 240 C 310 223.429688 323.429688 210 340 210 C 356.570312 210 370 223.429688 370 240 "/>
<path fill="none" stroke-width="4" stroke-linecap="butt" stroke-linejoin="miter" stroke="rgb(10%, 10%, 10%)" stroke-opacity="1" stroke-miterlimit="10" d="M 370 240 C 370 256.570312 356.570312 270 340 270 C 323.429688 270 310 256.570312 310 240 C 310 223.429688 323.429688 210 340 210 C 356.570312 210 370 223.429688 370 240 "/>
<path fill-rule="nonzero" fill="rgb(63.671875%, 72.265625%, 71.09375%)" fill-opacity="1" d="M 337 244 L 220 240 C 220 256.570312 206.570312 270 190 270 C 173.429688 270 160 256.570312 160 240 C 160 223.429688 173.429688 210 190 210 C 206.570312 210 220 223.429688 220 240 "/>
<path fill="none" stroke-width="4" stroke-linecap="butt" stroke-linejoin="miter" stroke="rgb(10%, 10%, 10%)" stroke-opacity="1" stroke-miterlimit="10" d="M 220 240 C 220 256.570312 206.570312 270 190 270 C 173.429688 270 160 256.570312 160 240 C 160 223.429688 173.429688 210 190 210 C 206.570312 210 220 223.429688 220 240 "/>
<path fill-rule="nonzero" fill="rgb(63.671875%, 72.265625%, 71.09375%)" fill-opacity="1" d="M 187 244 L 205 640 C 205 648.285156 198.285156 655 190 655 C 181.714844 655 175 648.285156 175 640 C 175 631.714844 181.714844 625 190 625 C 198.285156 625 205 631.714844 205 640 "/>
<path fill="none" stroke-width="4" stroke-linecap="butt" stroke-linejoin="miter" stroke="rgb(10%, 10%, 10%)" stroke-opacity="1" stroke-miterlimit="10" d="M 205 640 C 205 648.285156 198.285156 655 190 655 C 181.714844 655 175 648.285156 175 640 C 175 631.714844 181.714844 625 190 625 C 198.285156 625 205 631.714844 205 640 "/>
<path fill-rule="nonzero" fill="rgb(63.671875%, 72.265625%, 71.09375%)" fill-opacity="1" d="M 187 644 L 355 440 C 355 448.285156 348.285156 455 340 455 C 331.714844 455 325 448.285156 325 440 C 325 431.714844 331.714844 425 340 425 C 348.285156 425 355 431.714844 355 440 "/>
<path fill="none" stroke-width="4" stroke-linecap="butt" stroke-linejoin="miter" stroke="rgb(10%, 10%, 10%)" stroke-opacity="1" stroke-miterlimit="10" d="M 355 440 C 355 448.285156 348.285156 455 340 455 C 331.714844 455 325 448.285156 325 440 C 325 431.714844 331.714844 425 340 425 C 348.285156 425 355 431.714844 355 440 "/>
<path fill-rule="nonzero" fill="rgb(63.671875%, 72.265625%, 71.09375%)" fill-opacity="1" d="M 337 444 L 55 540 C 55 548.285156 48.285156 555 40 555 C 31.714844 555 25 548.285156 25 540 C 25 531.714844 31.714844 525 40 525 C 48.285156 525 55 531.714844 55 540 "/>
<path fill="none" stroke-width="4" stroke-linecap="butt" stroke-linejoin="miter" stroke="rgb(10%, 10%, 10%)" stroke-opacity="1" stroke-miterlimit="10" d="M 55 540 C 55 548.285156 48.285156 555 40 555 C 31.714844 555 25 548.285156 25 540 C 25 531.714844 31.714844 525 40 525 C 48.285156 525 55 531.714844 55 540 "/>
<path fill-rule="nonzero" fill="rgb(20%, 20%, 20%)" fill-opacity="1" d="M 37 544 L 192 540 C 192 542.667969 188 542.667969 188 540 C 188 537.332031 192 537.332031 192 540 "/>
<path fill-rule="nonzero" fill="rgb(20%, 20%, 20%)" fill-opacity="1" d="M 342 40 C 342 42.667969 338 42.667969 338 40 C 338 37.332031 342 37.332031 342 40 "/>
</svg>
